<svg xmlns="http://www.w3.org/2000/svg" xmlns:xlink="http://www.w3.org/1999/xlink" width="375" height="812" viewBox="0 0 375 812">
  <defs>
    <clipPath id="clip-path">
      <rect id="First_Background_Mask_" data-name="First (Background/Mask)" width="375" height="812" transform="translate(-2878.5 -13228.5)" fill="#fff"/>
    </clipPath>
    <radialGradient id="radial-gradient" cx="0.5" cy="0.5" r="0.777" gradientUnits="objectBoundingBox">
      <stop offset="0" stop-color="#e8e6a5"/>
      <stop offset="1" stop-color="#37b3a9"/>
    </radialGradient>
    <linearGradient id="linear-gradient" x1="1.189" y1="0" x2="-0.161" y2="1" xlink:href="#radial-gradient"/>
  </defs>
  <g id="Mask_Group_1" data-name="Mask Group 1" transform="translate(2878.5 13228.5)" clip-path="url(#clip-path)">
    <rect id="Rectangle" width="375" height="812" transform="translate(-2878.5 -13228.5)" fill="url(#radial-gradient)"/>
    <g id="Artboard_2" data-name="Artboard 2" transform="translate(-2808 -13158.356)">
      <path id="Shape" d="M.481,29.975V8.485H4.513V29.975ZM0,2.445A2.349,2.349,0,0,1,.72.7a2.5,2.5,0,0,1,1.8-.7A2.433,2.433,0,0,1,4.313.7a2.278,2.278,0,0,1,.68,1.75A2.466,2.466,0,0,1,2.5,4.752,2.466,2.466,0,0,1,0,2.445Z" transform="translate(63.697 106.458)" fill="#fff"/>
      <path id="Path" d="M3.924,19.965h.094c.555-.757,1.3-1.7,1.937-2.452l6.4-7.44h4.779L8.7,18.939l9.614,12.7H13.494L5.967,21.3,3.936,23.531V31.64H0V0H3.919Z" transform="translate(74.521 104.792)" fill="#fff"/>
      <path id="Path-2" data-name="Path" d="M.176,7.078C.176,4.588.132,2.448,0,.484H3.431l.132,4.147h.192A6.453,6.453,0,0,1,9.726,0a4.124,4.124,0,0,1,1.1.134V3.76A6.051,6.051,0,0,0,9.49,3.625c-2.744,0-4.726,2.055-5.264,4.937a10.784,10.784,0,0,0-.176,1.791V21.649H.17Z" transform="translate(96.169 114.784)" fill="#fff"/>
      <path id="Shape-2" data-name="Shape" d="M6.386,22.479A6.019,6.019,0,0,1,0,16.3c0-5.2,4.5-8.048,12.581-8V7.852c0-1.779-.479-4.982-4.757-4.982A10.2,10.2,0,0,0,2.347,4.5L1.48,1.917A12.68,12.68,0,0,1,8.356,0c6.386,0,7.951,4.495,7.951,8.8v8.052a31.579,31.579,0,0,0,.346,5.157H13.2l-.3-2.737h-.133a7.711,7.711,0,0,1-6.226,3.2Z" transform="translate(108.659 113.951)" fill="#fff"/>
      <path id="Path-3" data-name="Path" d="M.18,6.217C.18,4.032.136,2.239,0,.49H3.416L3.591,3.9h.131A7.421,7.421,0,0,1,10.462.005a6.342,6.342,0,0,1,6.074,4.241h.087a8.765,8.765,0,0,1,2.4-2.756A7.4,7.4,0,0,1,23.762.005c2.832,0,7.046,1.835,7.046,9.183V21.649h-3.82V9.667c0-4.064-1.512-6.513-4.655-6.513a5.038,5.038,0,0,0-4.612,3.5,6.309,6.309,0,0,0-.311,1.922V21.649h-3.82V8.967c0-3.364-1.506-5.813-4.481-5.813A5.314,5.314,0,0,0,4.279,7a5.167,5.167,0,0,0-.311,1.878V21.649H.147Z" transform="translate(131.14 114.784)" fill="#fff"/>
      <path id="Path-4" data-name="Path" d="M.18,6.217C.18,4.032.136,2.239,0,.49H3.418L3.592,3.9h.12A7.424,7.424,0,0,1,10.455.005a6.344,6.344,0,0,1,6.076,4.241h.087a8.766,8.766,0,0,1,2.4-2.756A7.4,7.4,0,0,1,23.759.005c2.839,0,7.048,1.835,7.048,9.183V21.649H26.986V9.667c0-4.064-1.512-6.513-4.657-6.513a5.04,5.04,0,0,0-4.613,3.5A6.307,6.307,0,0,0,17.4,8.574V21.649H13.583V8.967c0-3.364-1.507-5.813-4.482-5.813A5.316,5.316,0,0,0,4.269,7a5.165,5.165,0,0,0-.311,1.878V21.649H.136Z" transform="translate(167.776 114.784)" fill="#fff"/>
      <path id="Path-5" data-name="Path" d="M49.528,0H0V15.291s14.325-4.769,28.253-3.178,14.924-.2,16.714,20.054-3.6,103.552-3.6,103.552H57.692s-5.366-83.3-3.576-103.552S56.9,13.7,70.831,12.113s28.253,3.178,28.253,3.178V0Z" transform="translate(0.416 0.713)" fill="#fff"/>
      <rect id="Rectangle-2" data-name="Rectangle" width="156.536" height="12.49" transform="translate(42.048 136.433)" fill="#676767"/>
      <rect id="Rectangle-3" data-name="Rectangle" width="18.318" height="1.665" transform="translate(49.542 140.596)" fill="#fff"/>
      <rect id="Rectangle-4" data-name="Rectangle" width="18.318" height="1.665" transform="translate(79.517 140.596)" fill="#fff"/>
      <rect id="Rectangle-5" data-name="Rectangle" width="18.318" height="1.665" transform="translate(108.659 140.596)" fill="#fff"/>
      <rect id="Rectangle-6" data-name="Rectangle" width="18.318" height="1.665" transform="translate(137.801 140.596)" fill="#fff"/>
      <rect id="Rectangle-7" data-name="Rectangle" width="18.318" height="1.665" transform="translate(167.776 140.596)" fill="#fff"/>
    </g>
    <rect id="Rectangle_2" data-name="Rectangle 2" width="335" height="500" rx="20" transform="translate(-2858.5 -12955.5)" fill="#fff"/>
    <text id="Welcome" transform="translate(-2744.5 -12810.5)" fill="#1f2937" font-size="24" font-family="SegoeUI, Segoe UI"><tspan x="0" y="0">Welcome</tspan></text>
    <text id="Before_enjoying_Tikr" data-name="Before enjoying Tikr" transform="translate(-2690.5 -12773.5)" fill="#4b5563" font-size="14" font-family="SegoeUI, Segoe UI"><tspan x="-103.271" y="0">Before enjoying Tikramm services</tspan><tspan x="-58.314" y="21">Please register first</tspan></text>
    <g id="Frame_1" data-name="Frame 1" transform="translate(-2818.5 -12632.5)">
      <rect id="Frame_1_Background_" data-name="Frame 1 (Background)" width="256" height="49" rx="12" fill="url(#linear-gradient)"/>
      <text id="Create_Account" data-name="Create Account" transform="translate(128 26)" fill="#fff" font-size="14" font-family="SegoeUI, Segoe UI"><tspan x="-47.318" y="0">Create Account</tspan></text>
    </g>
    <g id="Frame_2" data-name="Frame 2" transform="translate(-2818.5 -12567.5)">
      <rect id="Frame_2_Background_" data-name="Frame 2 (Background)" width="256" height="49" rx="12" fill="none" stroke="#37b3a9" stroke-width="2" stroke-dasharray="0 0"/>
      <text id="Login" transform="translate(128 27)" fill="#37b3a9" font-size="14" font-family="SegoeUI, Segoe UI"><tspan x="-19.093" y="0">Login </tspan></text>
    </g>
  </g>
</svg>
